<svg xmlns="http://www.w3.org/2000/svg" xmlns:xlink="http://www.w3.org/1999/xlink" version="1.1" x="0px" y="0px" viewBox="0 0 333 101" xml:space="preserve">
  <!-- This SVG utilizes the Open Sans font, which is distributed under the Apache 2.0 License.

    Copyright 2017 Brian Jacobel

    Licensed under the Apache License, Version 2.0 (the "License");
    you may not use this file except in compliance with the License.
    You may obtain a copy of the License at

        http://www.apache.org/licenses/LICENSE-2.0

    Unless required by applicable law or agreed to in writing, software
    distributed under the License is distributed on an "AS IS" BASIS,
    WITHOUT WARRANTIES OR CONDITIONS OF ANY KIND, either express or implied.
    See the License for the specific language governing permissions and
    limitations under the License.
  -->
  <g>
    <rect fill="#F4512C" width="95" height="100" rx="10" ry="10" />
    <path fill="#ffffff" d="M17.9,85.2c6.1-1.1,12.4-2.9,15.3-10.4c0-0.1-0.1-0.3-0.3-0.3c-2.6,1.5-6,1.7-7.1,1.7c-0.3,0-0.4-0.1-0.4-0.4  c-0.1-1.1-0.4-4.5,0.8-7.2c0.1-0.1-0.1-0.3-0.3-0.3c-7.1,3.8-8.2,10.2-8.6,16.4C17.4,85,17.7,85.2,17.9,85.2z"/>
    <path fill="#ffffff" d="M36.7,41.3C22.7,42.4,14,51,10.1,55.2c-0.3,0.4,0,1,0.6,0.7c7.9-2.6,15.7-1.4,18.4-0.8c0.6,0.1,0.8,0.7,0.7,1.1L28,63  c-0.1,0.4,0.1,1,0.6,1.1c1.1,0.4,3.1,1.3,5,2.9c1.9,1.8,3.1,3.6,3.5,4.7c0.3,0.4,0.7,0.6,1.1,0.4l6.5-2.6c0.6-0.1,1,0,1.3,0.6  c0.8,2.5,3.1,10.3,1.3,18.4c-0.1,0.4,0.4,0.8,0.8,0.4c3.8-4.3,11.3-13.9,10.7-28c0-0.3,0.1-0.4,0.3-0.6c19.5-17,22.4-36.7,22.7-47.3  c-10.4,1.5-29.8,6.7-44.4,28C37.1,41.1,37,41.3,36.7,41.3z M61.2,36c2.9,2.6,3.2,7.2,0.6,10.2c-2.6,2.9-7.2,3.2-10.2,0.6  c-2.9-2.6-3.2-7.2-0.6-10.2C53.7,33.6,58.3,33.3,61.2,36z"/>
  </g>
  <g>
    <path fill="#F4512C" d="M142.40 68.83L142.40 100L119.26 100L119.26 14.34L147.32 14.34Q182.25 14.34 182.25 39.65Q182.25 54.53 167.71 62.68L192.68 100L166.43 100L148.26 68.83L142.40 68.83M142.40 51.43L146.74 51.43Q158.87 51.43 158.87 40.70Q158.87 31.86 146.97 31.86L142.40 31.86L142.40 51.43ZM236.42 100L232.03 91.21L231.56 91.21Q226.93 96.95 222.13 99.06Q217.32 101.17 209.70 101.17Q200.33 101.17 194.94 95.55Q189.55 89.92 189.55 79.73Q189.55 69.12 196.93 63.94Q204.31 58.75 218.32 58.11L229.39 57.75L229.39 56.82Q229.39 48.61 221.30 48.61Q214.04 48.61 202.85 53.54L196.23 38.42Q207.83 32.44 225.52 32.44Q238.30 32.44 245.30 38.77Q252.30 45.10 252.30 56.46L252.30 100L236.42 100M219.43 85Q223.59 85 226.55 82.36Q229.51 79.73 229.51 75.51L229.51 70.35L224.23 70.59Q212.93 71.00 212.93 78.91Q212.93 85 219.43 85ZM284.09 62.68Q288.25 56.05 291.18 52.36L306.07 33.61L331.61 33.61L308.59 61.86L333.08 100L306.89 100L292.36 76.21L284.91 81.89L284.91 100L261.89 100L261.89 8.83L284.91 8.83L284.91 44.69Q284.91 53.89 283.63 62.68L284.09 62.68Z"/>
  </g>
</svg>
